<svg xmlns="http://www.w3.org/2000/svg" version="1.1" xmlns:xlink="http://www.w3.org/1999/xlink" xmlns:svgjs="http://svgjs.dev/svgjs" width="1000" height="1000" viewBox="0 0 1000 1000"><rect width="1000" height="1000" fill="#ff0000"></rect><g transform="matrix(0.7,0,0,0.7,150.6187542197842,146.08680161943317)"><svg viewBox="0 0 244 247" data-background-color="#ff0000" preserveAspectRatio="xMidYMid meet" height="1012" width="1000" xmlns="http://www.w3.org/2000/svg" xmlns:xlink="http://www.w3.org/1999/xlink"><g id="tight-bounds" transform="matrix(1,0,0,1,-0.21567995767523485,-0.09999999999999432)"><svg viewBox="0 0 244.43135999999998 247.2" height="247.2" width="244.43135999999998"><g><svg></svg></g><g><svg viewBox="0 0 244.43135999999998 247.2" height="247.2" width="244.43135999999998"><g transform="matrix(1,0,0,1,0,79.00059607843139)"><svg viewBox="0 0 244.43135999999998 89.19880784313723" height="89.19880784313723" width="244.43135999999998"><g><svg viewBox="0 0 244.43135999999998 89.19880784313723" height="89.19880784313723" width="244.43135999999998"><g><svg viewBox="0 0 244.43135999999998 89.19880784313723" height="89.19880784313723" width="244.43135999999998"><g><svg viewBox="0 0 244.43135999999998 89.19880784313723" height="89.19880784313723" width="244.43135999999998"><g id="textblocktransform"><svg viewBox="0 0 244.43135999999998 89.19880784313723" height="89.19880784313723" width="244.43135999999998" id="textblock"><g><svg viewBox="0 0 244.43135999999998 89.19880784313723" height="89.19880784313723" width="244.43135999999998"><g transform="matrix(1,0,0,1,0,0)"><svg width="244.43135999999998" viewBox="1.4500000476837158 -42.95000076293945 137.69000244140625 50.25" height="89.19880784313723" data-palette-color="#ffffff"><path d="M14.3 7.3L14.3-2.2Q13.45-1.05 12.18-0.33 10.9 0.4 9.3 0.4L9.3 0.4Q5.9 0.4 4.2-1.07 2.5-2.55 1.98-5.08 1.45-7.6 1.45-11.75L1.45-11.75 1.45-26.25Q1.45-31.3 3.15-34.15 4.85-37 9.05-37L9.05-37Q12.4-37 14.3-34.65L14.3-34.65 14.3-36.6 23.2-36.6 23.2 7.3 14.3 7.3ZM12.2-6.4Q13.45-6.4 13.88-7.43 14.3-8.45 14.3-10.3L14.3-10.3 14.3-26.35Q14.3-30.15 12.25-30.15L12.25-30.15Q11-30.15 10.65-29.13 10.3-28.1 10.3-26.25L10.3-26.25 10.3-10.7Q10.3-8.6 10.65-7.5 11-6.4 12.2-6.4L12.2-6.4ZM40.3 0L30.6 0 26.15-36.6 33.65-36.6 36.1-16.95 38.2-36.6 45.85-36.6 48.35-16.95 50.4-36.6 58.65-36.6 53.95 0 45.2 0 42.6-20.8 40.3 0ZM71.8 0.4Q66.14 0.4 63.7-2.7 61.25-5.8 61.25-11.95L61.25-11.95 61.25-26.65Q61.25-31.7 64.14-34.35 67.05-37 72.25-37L72.25-37Q82.8-37 82.8-26.65L82.8-26.65 82.8-24Q82.8-20 82.7-17.5L82.7-17.5 70-17.5 70-10.4Q70-8.5 70.4-7.43 70.8-6.35 72.09-6.35L72.09-6.35Q73.09-6.35 73.52-6.95 73.95-7.55 74.02-8.33 74.09-9.1 74.09-10.6L74.09-10.6 74.09-14.15 82.8-14.15 82.8-12.05Q82.8-5.65 80.32-2.63 77.84 0.4 71.8 0.4L71.8 0.4ZM69.95-21.85L74.09-21.85 74.09-26.55Q74.09-30.5 72.15-30.5L72.15-30.5Q69.95-30.5 69.95-26.55L69.95-26.55 69.95-21.85ZM85.94 0L85.94-36.6 94.69-36.6 94.69-32.55Q95.34-34.7 96.97-35.88 98.59-37.05 100.99-37.05L100.99-37.05 100.99-29.75Q99.14-29.75 96.92-29.23 94.69-28.7 94.69-28L94.69-28 94.69 0 85.94 0ZM110.69 0.4Q107.24 0.4 105.94-1.05 104.64-2.5 104.64-5.7L104.64-5.7 104.64-28.55 102.19-28.55 102.19-35.2 104.64-35.2 104.64-42.95 113.14-42.95 113.14-35.2 115.64-35.2 115.64-28.55 113.14-28.55 113.14-8Q113.14-7.05 113.29-6.6 113.44-6.15 114.09-6.15L114.09-6.15Q114.59-6.15 115.04-6.2 115.49-6.25 115.64-6.25L115.64-6.25 115.64-0.25Q114.89-0.05 113.47 0.18 112.04 0.4 110.69 0.4L110.69 0.4ZM117.69 6.1L117.69 0.55 121.89 0.55Q122.79 0.55 122.79-0.2L122.79-0.2Q122.79-0.55 122.74-0.75L122.74-0.75 117.04-36.6 125.39-36.6 127.04-18.75 127.84-9.65 128.79-18.75 130.74-36.6 139.14-36.6 132.34 1.9Q131.99 4.05 130.91 5.08 129.84 6.1 127.54 6.1L127.54 6.1 117.69 6.1Z" opacity="1" transform="matrix(1,0,0,1,0,0)" fill="#ffffff" class="undefined-text-0" data-fill-palette-color="primary" id="text-0"></path></svg></g></svg></g></svg></g></svg></g><g></g></svg></g></svg></g></svg></g><path d="M0 73.001L0 1 244.431 1 244.431 73.001 236.387 73.001 236.387 9.044 8.044 9.044 8.044 73.001 0 73.001M0 174.199L0 246.2 244.431 246.2 244.431 174.199 236.387 174.199 236.387 238.156 8.044 238.156 8.044 174.199 0 174.199" fill="#ffffff" stroke="transparent" data-fill-palette-color="primary"></path></svg></g><defs></defs></svg><rect width="244.43135999999998" height="247.2" fill="none" stroke="none" visibility="hidden"></rect></g></svg></g></svg>